<svg xmlns="http://www.w3.org/2000/svg" viewBox="0 0 160 140" role="img">
  <defs>
    <linearGradient id="grass" x1="0" y1="0" x2="1" y2="1"><stop stop-color="#80934c"/><stop offset="1" stop-color="#445a32"/></linearGradient>
    <linearGradient id="stone" x1="0" y1="0" x2="0" y2="1"><stop stop-color="#c6b896"/><stop offset="1" stop-color="#756b58"/></linearGradient>
    <linearGradient id="wood" x1="0" y1="0" x2="0" y2="1"><stop stop-color="#aa7b45"/><stop offset="1" stop-color="#5d3b23"/></linearGradient>
    <linearGradient id="roof" x1="0" y1="0" x2="0" y2="1"><stop stop-color="#a94d31"/><stop offset="1" stop-color="#5e271f"/></linearGradient>
    <linearGradient id="slate" x1="0" y1="0" x2="0" y2="1"><stop stop-color="#697582"/><stop offset="1" stop-color="#303946"/></linearGradient>
    <linearGradient id="gold" x1="0" y1="0" x2="0" y2="1"><stop stop-color="#f1d477"/><stop offset="1" stop-color="#a56b22"/></linearGradient>
    <filter id="shadow" x="-40%" y="-40%" width="180%" height="200%"><feDropShadow dx="0" dy="5" stdDeviation="4" flood-color="#10160d" flood-opacity=".58"/></filter>
    <filter id="glow" x="-80%" y="-80%" width="260%" height="260%"><feGaussianBlur stdDeviation="3" result="b"/><feMerge><feMergeNode in="b"/><feMergeNode in="SourceGraphic"/></feMerge></filter>
  </defs>
  <ellipse cx="80" cy="119" rx="62" ry="12" fill="#10160d" opacity=".32"/>
  <path d="M80 45 151 83 80 124 9 84Z" fill="#6f8243" stroke="#26351f" stroke-width="2"/>
  <path d="M80 50 143 84 80 118 17 84Z" fill="url(#grass)" opacity=".72"/>
  <path d="M28 91c18-12 35-17 53-17 22 0 38 5 56 16" fill="none" stroke="#b89a61" stroke-width="5" opacity=".34"/>
  <g filter="url(#shadow)">
    <path d="M38 68 83.65 43 121 67 76.18 92Z" fill="url(#slate)" stroke="#432a1f" stroke-width="2"/>
    <path d="M43 70v36l38.18 13V92Z" fill="url(#stone)" stroke="#544a3b" stroke-width="1.5"/>
    <path d="M76.18 92v36l35.67 -13V70Z" fill="#81745e" stroke="#514739" stroke-width="1.5"/>
    <path d="M56.260000000000005 97v-20q8-7 16 0v24" fill="#4e3020" stroke="#c39758" stroke-width="1.6"/>
    
  </g><g filter="url(#shadow)"><path d="M25 104V55l19-14 19 14v49Z" fill="url(#stone)" stroke="#4c493f" stroke-width="2"/><path d="m20 56 24-28 24 28-24 13Z" fill="url(#slate)" stroke="#313943" stroke-width="2"/><path d="M44 27V13M36 20h16" stroke="#d2bd75" stroke-width="3"/><path d="M37 74h14v30H37Z" fill="#4b3324"/><circle cx="44" cy="61" r="6" fill="#e9cb6e" stroke="#5b4931" stroke-width="2"/></g></svg>