<svg xmlns="http://www.w3.org/2000/svg" viewBox="0 0 120 112" role="img">
  <defs>
    <linearGradient id="grass" x1="0" y1="0" x2="1" y2="1"><stop stop-color="#80934c"/><stop offset="1" stop-color="#445a32"/></linearGradient>
    <linearGradient id="stone" x1="0" y1="0" x2="0" y2="1"><stop stop-color="#c6b896"/><stop offset="1" stop-color="#756b58"/></linearGradient>
    <linearGradient id="wood" x1="0" y1="0" x2="0" y2="1"><stop stop-color="#aa7b45"/><stop offset="1" stop-color="#5d3b23"/></linearGradient>
    <linearGradient id="roof" x1="0" y1="0" x2="0" y2="1"><stop stop-color="#a94d31"/><stop offset="1" stop-color="#5e271f"/></linearGradient>
    <linearGradient id="slate" x1="0" y1="0" x2="0" y2="1"><stop stop-color="#697582"/><stop offset="1" stop-color="#303946"/></linearGradient>
    <linearGradient id="gold" x1="0" y1="0" x2="0" y2="1"><stop stop-color="#f1d477"/><stop offset="1" stop-color="#a56b22"/></linearGradient>
    <filter id="shadow" x="-40%" y="-40%" width="180%" height="200%"><feDropShadow dx="0" dy="5" stdDeviation="4" flood-color="#10160d" flood-opacity=".58"/></filter>
    <filter id="glow" x="-80%" y="-80%" width="260%" height="260%"><feGaussianBlur stdDeviation="3" result="b"/><feMerge><feMergeNode in="b"/><feMergeNode in="SourceGraphic"/></feMerge></filter>
  </defs>
  <ellipse cx="60" cy="92" rx="45" ry="8" fill="#11170f" opacity=".38"/>
  <path d="M60 14 110 42v38L60 108 10 80V42Z" fill="#4e633a" stroke="#5f9eaa" stroke-width="2.5"/>
  <path d="M17 45 60 21l43 24v31L60 100 17 76Z" fill="#718453" opacity=".7"/><path d="M18 80h82v12H18Z" fill="#805839" stroke="#3f2e21" stroke-width="2"/><path d="M25 92v12M52 92v12M79 92v12" stroke="#5a402b" stroke-width="4"/><path d="M57 78V29" stroke="#4c3828" stroke-width="3"/><path d="M60 34 92 62H60Z" fill="#d2b96e" stroke="#5e492e" stroke-width="2"/><path d="M32 79h64l-12 14H44Z" fill="#4f6f76" stroke="#283e42" stroke-width="2"/><path d="M12 106q17-8 34 0t34 0 34 0" fill="none" stroke="#6fb0bb" stroke-width="4"/></svg>